<?xml version="1.0" standalone="no"?>
<!DOCTYPE svg PUBLIC "-//W3C//DTD SVG 20010904//EN"
 "http://www.w3.org/TR/2001/REC-SVG-20010904/DTD/svg10.dtd">
<svg version="1.0" xmlns="http://www.w3.org/2000/svg"
 width="700.000000pt" height="700.000000pt" viewBox="0 0 700.000000 700.000000"
 preserveAspectRatio="xMidYMid meet">
<metadata>
Created by potrace 1.11, written by Peter Selinger 2001-2013
</metadata>
<g transform="translate(0.000000,700.000000) scale(0.100000,-0.100000)"
fill="#000000" stroke="none">
<path d="M21 6624 l-21 -27 0 -2493 0 -2493 23 -25 c18 -21 69 -37 322 -101
846 -216 1496 -383 1585 -406 41 -11 82 -22 90 -24 8 -2 104 -26 213 -54 197
-51 406 -105 782 -201 110 -28 251 -64 312 -81 93 -24 127 -28 197 -25 47 2
89 6 93 9 4 3 152 42 328 87 176 45 379 97 450 115 155 40 574 148 995 255
168 43 359 93 425 110 66 17 127 33 135 35 8 2 112 28 230 58 118 31 341 88
495 127 233 60 284 76 303 96 l22 25 0 2493 0 2493 -21 28 c-19 24 -27 26 -68
22 -25 -2 -167 -36 -316 -74 -397 -103 -1682 -434 -2480 -638 -225 -57 -453
-116 -505 -131 -52 -14 -102 -26 -110 -26 -8 0 -82 18 -165 40 -167 44 -702
182 -725 187 -8 2 -67 17 -130 34 -63 17 -326 84 -585 151 -259 66 -591 151
-740 190 -782 201 -1059 270 -1085 270 -19 0 -36 -9 -49 -26z m204 -74 c66
-17 127 -33 135 -35 15 -3 328 -83 665 -170 295 -76 950 -244 1225 -315 146
-37 364 -93 485 -125 121 -31 227 -58 235 -60 46 -9 458 -117 475 -124 20 -8
20 -18 20 -2481 0 -1851 -3 -2474 -11 -2477 -6 -2 -110 21 -230 52 -121 31
-226 58 -234 60 -8 1 -141 36 -295 75 -154 40 -408 105 -565 145 -424 109
-927 238 -1170 300 -118 31 -348 90 -510 132 -162 41 -314 80 -337 85 -29 6
-43 15 -44 26 -4 47 -5 4938 -1 4945 2 4 11 6 20 3 10 -3 71 -19 137 -36z
m6709 -2442 c-1 -1354 -2 -2468 -3 -2474 -1 -8 -55 -27 -116 -40 -5 -1 -206
-52 -445 -114 -239 -61 -563 -145 -720 -185 -433 -110 -830 -212 -975 -250
-690 -179 -1085 -279 -1110 -279 l-30 -1 0 2474 c0 2467 0 2474 20 2482 11 5
99 29 195 53 96 25 265 68 375 96 110 29 346 89 525 135 315 80 1101 282 1365
350 199 52 677 174 800 205 61 15 112 24 115 20 3 -5 4 -1117 4 -2472z"/>
<path d="M632 5878 c-17 -17 -15 -36 7 -47 10 -6 158 -46 327 -89 170 -44 480
-123 689 -177 209 -53 405 -103 435 -111 30 -8 179 -46 330 -85 151 -38 308
-79 348 -90 78 -22 102 -17 102 22 0 18 -38 32 -175 65 -5 1 -188 48 -405 104
-217 55 -483 124 -590 151 -107 28 -262 68 -345 89 -383 99 -672 172 -691 176
-11 2 -26 -2 -32 -8z"/>
<path d="M627 5333 c-16 -15 -5 -41 21 -51 22 -9 500 -134 561 -147 9 -2 93
-24 186 -49 143 -37 463 -119 515 -131 8 -2 51 -13 95 -25 44 -11 230 -59 414
-106 183 -47 343 -89 355 -93 11 -4 37 -7 56 -7 30 1 35 4 35 26 0 29 25 21
-405 131 -151 38 -354 91 -450 116 -96 25 -182 46 -190 48 -14 3 -195 50 -545
140 -623 161 -633 164 -648 148z"/>
<path d="M644 4832 c-69 -44 -96 -112 -75 -190 16 -59 46 -96 104 -126 152
-78 302 72 225 224 -13 24 -40 57 -61 74 -50 40 -144 48 -193 18z"/>
<path d="M1330 4554 c-26 -30 17 -49 230 -103 113 -28 293 -74 400 -101 107
-28 328 -85 490 -126 162 -41 316 -81 342 -89 53 -15 83 -3 76 31 -4 20 21 14
-763 213 -176 45 -353 91 -393 102 -40 11 -82 22 -92 24 -11 2 -71 18 -134 34
-133 36 -139 36 -156 15z"/>
<path d="M625 4170 c-4 -12 -2 -27 4 -33 8 -8 119 -40 211 -62 8 -1 123 -31
255 -65 486 -125 559 -143 1000 -257 757 -194 749 -192 763 -180 7 5 12 19 10
31 -3 18 -39 29 -303 97 -698 178 -947 242 -1070 274 -408 107 -804 208 -832
212 -25 4 -32 1 -38 -17z"/>
<path d="M627 3563 c-9 -8 -9 -25 1 -40 6 -10 164 -56 262 -78 8 -2 150 -38
315 -80 165 -43 428 -110 585 -150 374 -96 602 -155 838 -216 107 -28 203 -49
215 -47 16 2 22 10 22 28 0 23 -8 27 -120 57 -66 18 -129 35 -140 37 -21 4
-418 106 -610 156 -60 16 -245 63 -410 105 -165 42 -340 87 -390 100 -554 143
-554 143 -568 128z"/>
<path d="M636 2948 c-19 -11 -21 -32 -3 -46 9 -8 174 -55 267 -77 22 -5 677
-173 1040 -266 173 -44 323 -83 333 -85 22 -5 22 -5 207 -53 328 -86 360 -93
375 -87 13 5 23 56 11 56 -5 0 -105 26 -476 122 -187 48 -206 53 -249 62 -11
3 -53 14 -93 25 -40 11 -190 50 -333 86 -143 36 -354 91 -470 120 -571 147
-592 152 -609 143z"/>
<path d="M633 2333 c-7 -2 -13 -13 -13 -23 0 -9 6 -22 13 -27 6 -5 176 -52
377 -103 201 -51 439 -112 530 -136 91 -23 318 -82 505 -129 187 -48 426 -109
530 -136 105 -27 203 -52 219 -55 16 -3 33 -7 38 -10 13 -8 38 16 38 37 0 10
-8 20 -17 23 -29 9 -330 86 -853 221 -494 126 -606 155 -1091 279 -141 36
-258 66 -260 65 -2 0 -10 -3 -16 -6z"/>
<path d="M6329 5886 c-2 -3 -191 -52 -419 -110 -228 -59 -561 -144 -740 -190
-179 -46 -469 -120 -645 -165 -377 -96 -382 -98 -389 -116 -7 -19 22 -47 43
-41 24 7 280 73 666 172 187 47 459 117 605 154 146 38 409 105 585 150 176
45 328 86 338 91 20 11 22 30 5 47 -12 12 -40 16 -49 8z"/>
<path d="M6280 5280 c-86 -23 -741 -191 -760 -195 -8 -2 -58 -15 -110 -28 -89
-24 -390 -101 -985 -253 -315 -81 -287 -71 -283 -102 4 -37 16 -36 243 23 171
44 391 101 760 196 154 39 393 100 530 136 138 36 257 66 265 68 8 1 87 22
175 45 88 23 165 43 170 44 6 2 27 6 48 11 60 12 76 64 22 71 -5 0 -39 -7 -75
-16z"/>
<path d="M6250 4680 c-263 -68 -826 -212 -840 -215 -8 -2 -58 -15 -110 -28
-52 -14 -212 -56 -355 -92 -712 -182 -799 -205 -807 -218 -9 -15 9 -47 27 -47
8 0 57 11 108 24 86 23 226 59 805 207 130 33 296 76 367 94 72 19 229 59 350
90 510 130 570 147 583 163 16 21 15 30 -5 40 -12 6 -53 0 -123 -18z"/>
<path d="M6290 4099 c-36 -9 -198 -51 -360 -93 -443 -113 -523 -134 -670 -172
-74 -20 -142 -37 -150 -39 -8 -2 -175 -44 -370 -95 -195 -50 -362 -93 -370
-95 -106 -23 -216 -57 -228 -69 -13 -12 -13 -18 -2 -30 7 -9 20 -16 29 -16 9
0 138 32 286 70 149 39 279 72 290 74 11 2 56 14 100 26 44 12 87 23 95 25 15
3 238 60 1000 256 233 60 430 115 438 122 14 15 8 43 -11 49 -7 2 -41 -4 -77
-13z"/>
<path d="M6155 3434 c-212 -56 -510 -132 -910 -235 -423 -107 -400 -100 -400
-129 0 -18 6 -26 21 -28 19 -3 227 49 1236 310 277 71 304 82 277 114 -16 20
-35 17 -224 -32z"/>
<path d="M4251 3099 c-88 -19 -156 -104 -155 -195 0 -94 62 -154 158 -156 66
-2 133 34 168 89 34 55 35 143 2 193 -36 54 -108 83 -173 69z"/>
<path d="M6065 2858 c-148 -39 -337 -87 -420 -108 -157 -40 -433 -111 -720
-185 -573 -148 -723 -187 -745 -191 -46 -9 -62 -58 -22 -66 10 -2 37 2 62 8
25 7 216 56 425 110 209 53 511 130 670 171 160 41 297 76 306 78 9 2 67 17
130 33 63 17 213 56 334 87 121 31 236 60 256 66 21 5 40 16 43 25 8 20 -11
44 -33 43 -9 0 -137 -32 -286 -71z"/>
<path d="M6140 2286 c-113 -29 -338 -87 -500 -129 -162 -42 -365 -94 -450
-116 -85 -22 -254 -65 -375 -96 -730 -187 -671 -170 -679 -190 -7 -19 22 -47
43 -41 20 6 310 80 721 185 173 44 403 103 510 131 107 27 355 91 550 140 418
107 416 106 424 127 7 17 -10 43 -28 42 -6 0 -103 -24 -216 -53z"/>
<path d="M141 1091 c-8 -14 -7 -22 3 -30 7 -6 84 -29 172 -52 87 -22 202 -52
254 -65 52 -14 201 -52 330 -85 129 -33 341 -87 470 -121 129 -33 242 -62 250
-64 8 -2 128 -32 265 -68 816 -210 846 -217 861 -205 19 16 18 36 -3 48 -14 7
-522 141 -633 166 -8 2 -40 10 -70 19 -30 8 -163 42 -295 76 -334 85 -564 145
-740 190 -259 67 -708 182 -725 185 -8 2 -31 9 -50 14 -51 16 -78 13 -89 -8z"/>
<path d="M6775 1100 c-39 -9 -608 -156 -705 -181 -41 -11 -82 -21 -90 -23 -14
-4 -325 -83 -730 -187 -107 -28 -262 -68 -345 -89 -82 -21 -258 -66 -389 -100
-132 -34 -248 -66 -258 -71 -22 -12 -23 -32 -4 -48 15 -12 34 -8 721 169 83
21 249 64 370 95 121 31 263 68 315 81 52 14 102 27 110 29 9 2 130 32 270 68
908 233 832 210 823 247 -6 21 -32 24 -88 10z"/>
<path d="M3173 412 c-84 -3 -109 -15 -97 -46 7 -19 -27 -18 442 -18 343 -1
385 1 400 16 15 14 15 18 1 31 -13 13 -63 16 -340 18 -178 1 -361 1 -406 -1z"/>
</g>
</svg>
