<?xml version="1.0" encoding="iso-8859-1"?>
<!-- Generator: Adobe Illustrator 18.1.1, SVG Export Plug-In . SVG Version: 6.00 Build 0)  -->
<svg version="1.1" id="Capa_1" xmlns="http://www.w3.org/2000/svg" xmlns:xlink="http://www.w3.org/1999/xlink" x="0px" y="0px"
	 viewBox="0 0 323.437 323.437" style="enable-background:new 0 0 323.437 323.437;" xml:space="preserve">
<g>
	<path d="M159.667,291.56c-0.298,0-0.597-0.038-0.889-0.112L2.672,251.379C1.099,250.974,0,249.558,0,247.934V19.59
		c0-1.961,1.593-3.557,3.552-3.557c0.298,0,0.597,0.038,0.889,0.112l156.106,40.068c1.573,0.404,2.672,1.82,2.672,3.444v228.345
		C163.218,289.965,161.625,291.56,159.667,291.56z M3.552,19.033C3.287,19.033,3,19.246,3,19.59v228.345
		c0,0.254,0.172,0.476,0.418,0.538l156.106,40.069c0.319,0.088,0.695-0.134,0.694-0.539V59.658c0-0.254-0.172-0.476-0.418-0.538
		L3.694,19.052C3.646,19.039,3.599,19.033,3.552,19.033z"/>
	<path d="M126.03,305.36c-0.124,0-0.249-0.015-0.374-0.047L7.33,274.941c-0.802-0.206-1.286-1.023-1.08-1.826
		c0.207-0.802,1.022-1.284,1.826-1.08l118.327,30.372c0.802,0.206,1.286,1.023,1.08,1.826
		C127.309,304.91,126.699,305.36,126.03,305.36z"/>
	<path d="M197.407,305.36c-0.669,0-1.278-0.45-1.452-1.127c-0.206-0.803,0.277-1.62,1.08-1.826l118.326-30.372
		c0.803-0.205,1.62,0.278,1.826,1.08c0.206,0.803-0.277,1.62-1.08,1.826l-118.326,30.372
		C197.656,305.345,197.53,305.36,197.407,305.36z"/>
	<path d="M131.231,132.835c-0.124,0-0.249-0.015-0.374-0.047l-68.534-17.591c-0.802-0.206-1.286-1.023-1.08-1.826
		c0.207-0.801,1.023-1.285,1.826-1.08l68.534,17.591c0.802,0.206,1.286,1.023,1.08,1.826
		C132.51,132.385,131.9,132.835,131.231,132.835z"/>
	<path d="M131.231,80.284c-0.124,0-0.249-0.015-0.374-0.047L29.774,54.291c-0.802-0.206-1.286-1.023-1.08-1.826
		c0.207-0.802,1.025-1.283,1.826-1.08l101.083,25.946c0.802,0.206,1.286,1.023,1.08,1.826
		C132.509,79.834,131.9,80.284,131.231,80.284z"/>
	<path d="M131.231,105.489c-0.124,0-0.249-0.015-0.374-0.047L29.774,79.497c-0.802-0.206-1.286-1.023-1.08-1.826
		c0.206-0.802,1.022-1.284,1.826-1.08l101.083,25.945c0.802,0.206,1.286,1.023,1.08,1.826
		C132.51,105.039,131.9,105.489,131.231,105.489z"/>
	<path d="M131.231,158.78c-0.124,0-0.249-0.015-0.374-0.047L29.774,132.788c-0.802-0.206-1.286-1.023-1.08-1.826
		c0.206-0.802,1.022-1.283,1.826-1.08l101.083,25.945c0.802,0.206,1.286,1.023,1.08,1.826
		C132.51,158.33,131.9,158.78,131.231,158.78z"/>
	<path d="M131.231,187.294c-0.124,0-0.249-0.015-0.374-0.047L29.774,161.302c-0.802-0.206-1.286-1.023-1.08-1.826
		c0.206-0.801,1.022-1.285,1.826-1.08l101.083,25.945c0.802,0.206,1.286,1.023,1.08,1.826
		C132.51,186.844,131.9,187.294,131.231,187.294z"/>
	<path d="M131.231,215.807c-0.124,0-0.249-0.015-0.374-0.047L29.774,189.814c-0.802-0.206-1.286-1.023-1.08-1.826
		c0.207-0.801,1.025-1.285,1.826-1.08l101.083,25.946c0.802,0.206,1.286,1.023,1.08,1.826
		C132.509,215.357,131.9,215.807,131.231,215.807z"/>
	<path d="M131.231,244.32c-0.124,0-0.249-0.015-0.374-0.047L29.774,218.328c-0.802-0.206-1.286-1.023-1.08-1.826
		c0.206-0.802,1.022-1.287,1.826-1.08l101.083,25.945c0.802,0.206,1.286,1.023,1.08,1.826
		C132.51,243.87,131.9,244.32,131.231,244.32z"/>
	<path d="M225.098,183.116c-0.669,0-1.278-0.45-1.452-1.127c-0.206-0.803,0.277-1.62,1.08-1.826l68.533-17.591
		c0.804-0.207,1.62,0.278,1.826,1.08c0.206,0.803-0.277,1.62-1.08,1.826l-68.533,17.591
		C225.347,183.101,225.221,183.116,225.098,183.116z"/>
	<path d="M192.549,80.284c-0.668,0-1.278-0.45-1.452-1.127c-0.206-0.803,0.278-1.62,1.08-1.826l101.082-25.946
		c0.804-0.206,1.62,0.278,1.826,1.08c0.206,0.803-0.277,1.62-1.08,1.826L192.923,80.237
		C192.798,80.269,192.673,80.284,192.549,80.284z"/>
	<path d="M192.549,107.623c-0.668,0-1.278-0.45-1.452-1.127c-0.206-0.803,0.278-1.62,1.08-1.826l101.082-25.945
		c0.804-0.21,1.62,0.279,1.826,1.08c0.206,0.803-0.277,1.62-1.08,1.826l-101.082,25.945
		C192.798,107.608,192.673,107.623,192.549,107.623z"/>
	<path d="M192.549,162.302c-0.668,0-1.278-0.45-1.452-1.127c-0.206-0.803,0.278-1.62,1.08-1.826l101.082-25.945
		c0.804-0.21,1.62,0.279,1.826,1.08c0.206,0.803-0.277,1.62-1.08,1.826l-101.082,25.945
		C192.798,162.287,192.673,162.302,192.549,162.302z"/>
	<path d="M192.549,134.963c-0.668,0-1.278-0.45-1.452-1.127c-0.206-0.803,0.278-1.62,1.08-1.826l101.082-25.945
		c0.804-0.207,1.62,0.278,1.826,1.08c0.206,0.803-0.277,1.62-1.08,1.826l-101.082,25.945
		C192.798,134.948,192.673,134.963,192.549,134.963z"/>
	<path d="M192.549,216.981c-0.668,0-1.278-0.45-1.452-1.127c-0.206-0.803,0.278-1.62,1.08-1.826l101.082-25.946
		c0.804-0.21,1.62,0.279,1.826,1.08c0.206,0.803-0.277,1.62-1.08,1.826l-101.082,25.946
		C192.798,216.967,192.673,216.981,192.549,216.981z"/>
	<path d="M192.549,244.32c-0.668,0-1.278-0.45-1.452-1.127c-0.206-0.803,0.278-1.62,1.08-1.826l101.082-25.945
		c0.804-0.207,1.62,0.278,1.826,1.08c0.206,0.803-0.277,1.62-1.08,1.826l-101.082,25.945
		C192.798,244.305,192.673,244.32,192.549,244.32z"/>
	<path d="M163.771,291.56c-1.958,0-3.552-1.596-3.552-3.558V59.658c0-1.624,1.099-3.04,2.673-3.444l156.105-40.068
		c0.291-0.074,0.591-0.112,0.889-0.112c1.958,0,3.552,1.596,3.552,3.557v228.345c0,1.624-1.099,3.04-2.672,3.444l-156.106,40.069
		C164.368,291.522,164.069,291.56,163.771,291.56z M319.885,19.033c-0.047,0-0.095,0.006-0.143,0.019L163.637,59.12
		c-0.247,0.063-0.418,0.284-0.418,0.538v228.345c0,0.405,0.375,0.62,0.695,0.539l156.106-40.069
		c0.246-0.062,0.418-0.284,0.418-0.538V19.59C320.437,19.246,320.151,19.033,319.885,19.033z"/>
	<path d="M179.933,307.404h-36.429c-0.829,0-1.5-0.672-1.5-1.5s0.671-1.5,1.5-1.5h36.429c0.829,0,1.5,0.672,1.5,1.5
		S180.762,307.404,179.933,307.404z"/>
	<path d="M42.517,107.517c0.402,4.591-2.995,8.313-7.586,8.313s-8.639-3.722-9.04-8.313c-0.402-4.591,2.995-8.313,7.586-8.313
		S42.115,102.926,42.517,107.517z"/>
	<path d="M205.721,188.361c-0.402,4.591-4.449,8.313-9.04,8.313s-7.987-3.722-7.586-8.313s4.449-8.313,9.04-8.313
		S206.122,183.77,205.721,188.361z"/>
</g>
<g>
</g>
<g>
</g>
<g>
</g>
<g>
</g>
<g>
</g>
<g>
</g>
<g>
</g>
<g>
</g>
<g>
</g>
<g>
</g>
<g>
</g>
<g>
</g>
<g>
</g>
<g>
</g>
<g>
</g>
</svg>
